<?xml version="1.0" encoding="utf-8"?>
<!-- Generator: Adobe Illustrator 19.0.0, SVG Export Plug-In . SVG Version: 6.00 Build 0)  -->
<svg version="1.1" id="Layer_1" xmlns="http://www.w3.org/2000/svg" xmlns:xlink="http://www.w3.org/1999/xlink" x="0px" y="0px"
	 width="1400px" height="980px" viewBox="0 0 1400 980" enable-background="new 0 0 1400 980" xml:space="preserve">
<g id="XMLID_1_">
	<g id="XMLID_30_">
		<path id="XMLID_125_" fill="#414042" d="M112.4,218.9c-2.8-1.3-5.8-2.1-9.1-2.1c-11.4,0-20.8,9.3-20.8,20.8s9.3,20.8,20.8,20.8
			c11.4,0,20.8-9.3,20.8-20.8c0-4.9-1.7-9.4-4.5-12.9c7.5-5.6,22.7-19.4,28.9-43c4.5,9.3,9.8,24,7.7,39.9
			c-10,1.5-17.8,10.1-17.8,20.5c0,11.4,9.3,20.8,20.8,20.8c11.4,0,20.8-9.3,20.8-20.8c0-9.4-6.4-17.4-15-19.9
			c2.8-23.2-7.6-43.5-12.6-51.7l-6.2-17.7c-0.8-2.3-3.3-3.5-5.6-2.7c-2.3,0.8-3.5,3.3-2.7,5.6l3,8.4c-8-0.5-15.9,1.8-22.5,6.8
			c-7.8,5.9-12.6,15-13.2,24.8c0,0.3,0,0.5,0,0.8c0,0,0,0,0,0c0,0.3,0.1,0.5,0.2,0.8c0,0,0,0,0,0c0.1,0.2,0.2,0.5,0.3,0.7
			c0,0,0,0,0,0.1c0.1,0.2,0.3,0.4,0.4,0.6c0,0,0.1,0.1,0.1,0.1c0.1,0.2,0.3,0.3,0.5,0.5c0.1,0,0.1,0.1,0.1,0.1
			c0.2,0.1,0.4,0.3,0.6,0.4c0.1,0,0.1,0.1,0.2,0.1c0.2,0.1,0.5,0.2,0.7,0.3c0,0,0.1,0,0.1,0c0,0,0,0,0,0c0,0,0,0,0.1,0
			c3,0.8,6.1,1.2,9.1,1.2c5,0,10-1.1,14.5-3.4C124.8,209.6,115.9,216.4,112.4,218.9z M103.3,249.5c-6.6,0-12-5.4-12-12
			c0-6.6,5.4-12,12-12c6.6,0,12,5.4,12,12C115.3,244.1,109.9,249.5,103.3,249.5z M171.1,242.1c0,6.6-5.4,12-12,12
			c-6.6,0-12-5.4-12-12c0-6.6,5.4-12,12-12C165.7,230.1,171.1,235.4,171.1,242.1z M114.3,192.3c1.2-5.8,4.5-10.9,9.2-14.6
			c5.2-3.9,11.5-5.6,17.8-4.9c-0.2,1.1-0.4,2.1-0.6,3.2c-1.6,4.5-4.5,8.5-8.3,11.4C127.1,191.4,120.7,193.1,114.3,192.3z"/>
		<g id="XMLID_3_">
			<path id="XMLID_29_" fill="#414042" d="M476,206.3c0-32.8-26.7-59.6-59.6-59.6s-59.6,26.7-59.6,59.6c0,32.8,26.7,59.6,59.6,59.6
				S476,239.1,476,206.3z M365.7,206.3c0-28,22.8-50.8,50.8-50.8c28,0,50.8,22.8,50.8,50.8c0,28-22.8,50.8-50.8,50.8
				C388.5,257.1,365.7,234.3,365.7,206.3z"/>
			<path id="XMLID_141_" fill="#414042" d="M382.5,240.6c8.7,8.6,20.7,14,33.9,14s25.2-5.3,33.9-14c0.1-0.1,0.2-0.1,0.2-0.2
				c0.1-0.1,0.1-0.2,0.2-0.2c8.6-8.7,14-20.7,14-33.9s-5.3-25.2-14-33.9c-0.1-0.1-0.1-0.2-0.2-0.2c-0.1-0.1-0.2-0.1-0.2-0.2
				c-8.7-8.6-20.7-14-33.9-14s-25.2,5.3-33.9,14c-0.1,0.1-0.2,0.1-0.2,0.2c-0.1,0.1-0.1,0.2-0.2,0.2c-8.6,8.7-14,20.7-14,33.9
				s5.3,25.2,14,33.9c0.1,0.1,0.1,0.2,0.2,0.2C382.4,240.5,382.5,240.6,382.5,240.6z M447.3,231L427,210.7h28.7
				C454.9,218.3,451.9,225.3,447.3,231z M455.8,201.9H427l20.3-20.3C451.9,187.3,454.9,194.3,455.8,201.9z M420.8,167
				c7.6,0.8,14.6,3.9,20.3,8.4l-20.3,20.3V167z M420.8,216.9l20.3,20.3c-5.7,4.6-12.7,7.6-20.3,8.4V216.9z M412.1,245.6
				c-7.6-0.8-14.6-3.9-20.3-8.4l20.3-20.3V245.6z M412.1,167v28.7l-20.3-20.3C397.5,170.9,404.5,167.8,412.1,167z M385.6,181.6
				l20.3,20.3h-28.7C378,194.3,381,187.3,385.6,181.6z M377.2,210.7h28.7L385.6,231C381,225.3,378,218.3,377.2,210.7z"/>
		</g>
		<path id="XMLID_122_" fill="#414042" d="M769.3,174.7c0-2.4-2-4.4-4.4-4.4H752h-50.3h-50.3h-12.9c-2.4,0-4.4,2-4.4,4.4
			c0,37.3,30.3,67.6,67.6,67.6S769.3,212,769.3,174.7z M747.5,179.1c-0.9,9.4-4.6,18-10.3,24.9l-24.9-24.9H747.5z M706.1,185.3
			l24.9,24.9c-6.9,5.7-15.5,9.4-24.9,10.3V185.3z M691.1,179.1l-24.9,24.9c-5.7-6.9-9.4-15.5-10.3-24.9H691.1z M697.3,185.3v35.2
			c-9.4-0.9-18-4.6-24.9-10.3L697.3,185.3z M643.1,179.1h4.1c1.1,13.2,6.8,25.2,15.7,34.1c0.1,0.1,0.1,0.2,0.2,0.2
			c0.1,0.1,0.2,0.2,0.3,0.3c9.9,9.7,23.4,15.8,38.4,15.8s28.5-6,38.4-15.8c0.1-0.1,0.2-0.2,0.3-0.3c0.1-0.1,0.1-0.2,0.2-0.2
			c8.8-8.9,14.6-20.8,15.7-34.1h4.1c-2.2,30.4-27.7,54.4-58.7,54.4S645.3,209.5,643.1,179.1z"/>
		<g id="XMLID_4_">
			<path id="XMLID_32_" fill="#414042" d="M1055.7,175.3c0-0.1,0-0.3,0-0.4c0-0.2-0.1-0.3-0.1-0.5c0-0.1-0.1-0.2-0.1-0.4
				c-0.1-0.2-0.1-0.3-0.2-0.5c-0.1-0.1-0.1-0.2-0.2-0.3c-0.1-0.2-0.2-0.3-0.3-0.4c-0.1-0.1-0.1-0.2-0.2-0.2c0,0,0,0,0,0
				c-0.1-0.1-0.3-0.3-0.4-0.4c-0.1-0.1-0.1-0.1-0.2-0.2c-0.2-0.1-0.4-0.3-0.7-0.4c0,0-0.1,0-0.1-0.1c-0.5-0.2-1.1-0.4-1.7-0.4H1037
				H936.9h-14.3c-0.6,0-1.2,0.1-1.7,0.4c0,0-0.1,0-0.1,0.1c-0.2,0.1-0.5,0.2-0.7,0.4c-0.1,0.1-0.1,0.1-0.2,0.2
				c-0.2,0.1-0.3,0.2-0.4,0.4c0,0,0,0,0,0c-0.1,0.1-0.1,0.2-0.2,0.2c-0.1,0.1-0.2,0.3-0.3,0.4c-0.1,0.1-0.1,0.2-0.2,0.3
				c-0.1,0.1-0.2,0.3-0.2,0.5c0,0.1-0.1,0.2-0.1,0.4c0,0.2-0.1,0.3-0.1,0.5c0,0.1,0,0.3,0,0.4c0,0.1,0,0.2,0,0.4c0,0,0,0.1,0,0.1
				c0,0,0,0.1,0,0.1c1.7,36.8,31.9,65.6,68.7,65.6s67-28.8,68.7-65.6c0,0,0-0.1,0-0.1c0,0,0-0.1,0-0.1
				C1055.7,175.5,1055.7,175.4,1055.7,175.3z M1032.1,180c-3.6,21.8-22.6,38.3-45.1,38.3s-41.6-16.5-45.1-38.3H1032.1z M987,232.6
				c-30.6,0-55.9-22.8-59.6-52.6h5.6c3.7,26.7,26.6,47.1,54,47.1c27.4,0,50.3-20.4,54-47.1h5.6C1042.9,209.8,1017.6,232.6,987,232.6
				z"/>
			<path id="XMLID_23_" fill="#414042" d="M991.5,205.3c0-2.6-2.1-8.5-4.6-8.5s-4.6,5.9-4.6,8.5s2.1,4.6,4.6,4.6
				S991.5,207.9,991.5,205.3z"/>
			<path id="XMLID_20_" fill="#414042" d="M1012.1,199.8c1.8-1.8,1.8-4.7,0-6.5c-1.8-1.8-7.5-4.5-9.3-2.7c-1.8,1.8,0.9,7.5,2.7,9.3
				C1007.4,201.6,1010.3,201.6,1012.1,199.8z"/>
			<path id="XMLID_21_" fill="#414042" d="M968.4,199.2c1.8-1.8,4.5-7.5,2.7-9.3s-7.5,0.9-9.3,2.7c-1.8,1.8-1.8,4.7,0,6.5
				C963.7,201,966.6,201,968.4,199.2z"/>
		</g>
		<g id="XMLID_53_">
			<path id="XMLID_87_" fill="#414042" d="M1330.1,192.3c-1.5-4.6-5.4-7.8-10.1-8.5l-24.6-3.6l-11-22.3c-2.1-4.3-6.4-7-11.2-7
				c-4.8,0-9.1,2.7-11.2,7l-11,22.3l-24.6,3.6c-4.7,0.7-8.6,4-10.1,8.5c-1.5,4.6-0.3,9.5,3.2,12.8l17.8,17.3l-4.2,24.5
				c-0.8,4.7,1.1,9.4,5,12.2c3.9,2.8,8.9,3.2,13.2,1l22-11.5l22,11.5c1.8,1,3.8,1.5,5.8,1.5c2.6,0,5.2-0.8,7.3-2.4
				c3.9-2.8,5.8-7.5,5-12.2l-4.2-24.5l17.8-17.3C1330.4,201.8,1331.6,196.9,1330.1,192.3z M1320.8,198.9l-19.4,18.9
				c-1,1-1.5,2.5-1.3,3.9l4.6,26.7c0.4,2.1-0.9,3.3-1.5,3.7c-0.6,0.4-2.1,1.3-4,0.3l-24-12.6c-0.6-0.3-1.3-0.5-2-0.5
				c-0.7,0-1.4,0.2-2,0.5l-24,12.6c-1.9,1-3.4,0.1-4-0.3c-0.6-0.4-1.9-1.6-1.5-3.7l4.6-26.7c0.2-1.4-0.2-2.9-1.3-3.9l-19.4-18.9
				c-1.5-1.5-1.2-3.2-1-3.9c0.2-0.7,0.9-2.3,3-2.6l26.8-3.9c1.4-0.2,2.7-1.1,3.3-2.4l12-24.3c0.9-1.9,2.7-2.1,3.4-2.1
				c0.7,0,2.4,0.2,3.4,2.1l12,24.3c0.6,1.3,1.9,2.2,3.3,2.4l26.8,3.9c2.1,0.3,2.8,1.9,3,2.6C1322,195.7,1322.3,197.4,1320.8,198.9z"
				/>
			<path id="XMLID_24_" fill="#414042" d="M1277.9,190.9c0-2.3-1.9-4.2-4.2-4.2c-2.3,0-4.2,1.9-4.2,4.2s1.9,7.8,4.2,7.8
				C1276,198.6,1277.9,193.2,1277.9,190.9z"/>
			<path id="XMLID_25_" fill="#414042" d="M1264.6,204.3c0.7-2.2-3.9-5.7-6.1-6.4s-4.6,0.5-5.3,2.7c-0.7,2.2,0.5,4.6,2.7,5.3
				C1258.1,206.7,1263.9,206.5,1264.6,204.3z"/>
			<path id="XMLID_55_" fill="#414042" d="M1266.1,223.5c1.4-1.9,3-7.4,1.1-8.8c-1.9-1.4-6.6,1.9-8,3.8c-1.4,1.9-1,4.5,0.9,5.9
				C1262,225.8,1264.7,225.4,1266.1,223.5z"/>
			<path id="XMLID_63_" fill="#414042" d="M1284.9,225.1c1.9-1.4,2.3-4,0.9-5.9c-1.4-1.9-6.1-5.2-8-3.8c-1.9,1.4-0.2,6.9,1.1,8.8
				C1280.4,226.1,1283,226.5,1284.9,225.1z"/>
			<path id="XMLID_64_" fill="#414042" d="M1290.6,207.1c2.2-0.7,3.4-3.1,2.7-5.3c-0.7-2.2-3.1-3.4-5.3-2.7
				c-2.2,0.7-6.8,4.2-6.1,6.4C1282.6,207.7,1288.3,207.9,1290.6,207.1z"/>
		</g>
		<g id="XMLID_76_">
			<path id="XMLID_78_" fill="#414042" d="M84.3,430.8c11.1,13.9,28.9,22.2,47.7,22.2c19.6,0,37.9-8.9,48.9-23.7
				c1.2-1.6,2.8-3.1,4.9-4.6c3.8-2.7,6-6.5,6-10.4c0-4-2.2-7.8-6-10.4c-2.1-1.5-3.7-3-4.9-4.6c-11-14.9-29.3-23.7-48.9-23.7
				c-18.8,0-36.6,8.3-47.7,22.2c-1.6,1.9-3.7,3.7-6.6,5.5c-4.5,2.7-7,6.8-7,11.1c0,4.4,2.6,8.4,7,11.1
				C80.6,427.1,82.7,428.8,84.3,430.8z M82.2,410.5c3.8-2.3,6.7-4.7,8.9-7.5c9.5-11.8,24.7-18.9,40.9-18.9
				c16.8,0,32.5,7.5,41.9,20.2c1.7,2.3,4,4.5,6.9,6.5c1.4,1,2.2,2.2,2.2,3.3c0,1.1-0.8,2.3-2.2,3.3c-2.9,2-5.2,4.2-6.9,6.5
				c-9.4,12.6-25,20.2-41.9,20.2c-16.1,0-31.4-7.1-40.9-18.9c-2.2-2.7-5.1-5.2-8.9-7.5c-1.8-1.1-2.8-2.4-2.8-3.6
				C79.4,413,80.5,411.6,82.2,410.5z"/>
			<circle id="XMLID_66_" fill="#414042" cx="146.8" cy="432.3" r="2"/>
			<circle id="XMLID_69_" fill="#414042" cx="153.2" cy="421.9" r="2"/>
			<circle id="XMLID_79_" fill="#414042" cx="164.9" cy="423.1" r="2"/>
			<circle id="XMLID_82_" fill="#414042" cx="170.4" cy="414.2" r="2"/>
		</g>
		<g id="XMLID_67_">
			<path id="XMLID_92_" fill="#414042" d="M368.3,435.3c1,17.9,10.7,39.8,27.2,46.8c4.2,1.8,7.9,2.5,11.1,2.5c4.2,0,7.5-1.3,9.8-3
				c4.1,2.9,11,4.7,20.9,0.4c16.5-7.1,26.2-28.9,27.2-46.8c1.3-21.7-8.7-31.6-17.4-36.1c-8.4-4.4-21.1-2-27.9-0.3c0,0,0-0.1,0-0.1
				c0-0.1,0-0.2,0-0.3c0,0,0,0,0,0c0,0,0,0,0,0c0-0.1,0-0.2,0-0.4c0.2-4.5,2.1-10.8,11.1-13.3c2.3-0.6,3.7-3,3.1-5.4
				s-3.1-3.7-5.4-3.1c-6,1.6-10.1,4.5-12.8,7.8c-2.4-4.4-5.9-8.3-10.2-11.2c-7.9-5.4-17.7-7.1-27-4.6c-0.3,0.1-0.5,0.2-0.7,0.3
				c0,0,0,0,0,0c-0.2,0.1-0.5,0.3-0.7,0.4c0,0,0,0,0,0c-0.2,0.2-0.4,0.3-0.6,0.5c0,0,0,0-0.1,0.1c-0.2,0.2-0.3,0.4-0.4,0.6
				c0,0-0.1,0.1-0.1,0.1c-0.1,0.2-0.2,0.4-0.3,0.6c0,0.1-0.1,0.1-0.1,0.2c-0.1,0.2-0.1,0.4-0.2,0.7c0,0.1,0,0.1,0,0.2
				c0,0.3,0,0.5,0,0.8c0,0,0,0.1,0,0.1c0,0,0,0,0,0c0,0,0,0.1,0,0.1c0.5,10.1,5.5,19.2,13.7,25c-1,0.3-2,0.7-3,1.2
				C377.1,403.7,367.1,413.6,368.3,435.3z M384.2,376.2c5.6-0.6,11.3,0.8,16.1,4.1c4.2,2.9,7.3,7,9,11.6l-10.8-7.8
				c-1.2-0.8-2.8-0.6-3.7,0.6c-0.8,1.2-0.6,2.8,0.6,3.7l9.5,6.8c-3.8-0.5-7.5-1.8-10.7-4C388.9,387.6,385.4,382.3,384.2,376.2z
				 M389.7,407c6.7-3.5,20.6-0.1,25.3,1.5c0.9,0.3,1.9,0.3,2.8,0c4.4-1.5,18.6-5,25.3-1.5c9.2,4.8,13.5,14.2,12.7,27.8
				c-0.9,14.9-8.9,33.7-21.9,39.3c-9.9,4.3-13.1,0-13.6-0.8c-0.7-1.5-2.1-2.4-3.8-2.5c-1.7,0-3.2,1-4,2.5c0,0.1-3,5.2-13.5,0.7
				c-13.1-5.6-21.1-24.4-21.9-39.3C376.3,421.2,380.5,411.8,389.7,407z"/>
			<path id="XMLID_84_" fill="#414042" d="M398.9,415.3c1.6-0.6,2.4-2.3,1.8-3.9c-0.6-1.6-2.3-2.4-3.9-1.8c-5.6,2-16,9.8-15.5,25.2
				c0.1,1.7,1.4,3,3.1,3c0,0,0.1,0,0.1,0c1.7-0.1,3-1.5,3-3.2C386.9,419.9,398.3,415.4,398.9,415.3z"/>
		</g>
		<path id="XMLID_175_" fill="#414042" d="M674.6,399c-3.1-3.9-7.8-6.5-13.2-6.8c-10-0.5-18.5,7.1-19.1,17.1
			c-0.5,9.4,6.2,17.5,15.3,18.9c-0.9,2-1.4,4.1-1.6,6.4c-0.5,9.1,5.9,17.1,14.7,18.8c-0.5,1.5-0.8,3.1-0.9,4.7
			c-0.5,9.2,6,17.1,14.8,18.8c-0.6,1.6-0.9,3.3-1,5c-0.3,4.8,1.4,9.5,4.6,13.1c3.2,3.6,7.7,5.7,12.5,6c0.3,0,0.7,0,1,0
			c4.5,0,8.7-1.6,12.1-4.6c3.6-3.2,5.7-7.7,6-12.5c0.1-2.4-0.2-4.8-1-7c3.2-0.6,6.2-2.1,8.7-4.3c3.6-3.2,5.7-7.7,6-12.5
			c0.1-2.3-0.2-4.6-0.9-6.7c8-1.5,14.2-8.3,14.7-16.8c0.2-3-0.4-5.8-1.6-8.4c8.3-1.3,14.8-8.2,15.3-16.9c0.5-10-7.1-18.5-17.1-19.1
			c-6-0.3-11.5,2.4-15.1,6.7c-3.1-3.4-7.5-5.7-12.4-5.9c-3.9-0.2-7.6,0.8-10.8,2.9c-0.5-12.8,0.8-29.4,6.5-34.5
			c1.5-1.3,3.2-1.7,5.5-1.3c2.4,0.5,4.7-1,5.2-3.4c0.5-2.4-1-4.7-3.4-5.2c-5-1-9.5,0.1-13.1,3.3c-2.2,2-3.9,4.7-5.3,7.9
			c-2.1-3.2-4.9-6-8.1-8.2c-7.3-5-16.4-6.6-25-4.3c-0.2,0.1-0.5,0.2-0.7,0.3c0,0,0,0-0.1,0c-0.2,0.1-0.5,0.3-0.7,0.4c0,0,0,0-0.1,0
			c-0.2,0.1-0.4,0.3-0.5,0.5c0,0-0.1,0-0.1,0.1c-0.2,0.2-0.3,0.3-0.4,0.5c0,0-0.1,0.1-0.1,0.1c-0.1,0.2-0.2,0.4-0.3,0.6
			c0,0.1-0.1,0.1-0.1,0.2c-0.1,0.2-0.1,0.4-0.2,0.6c0,0.1,0,0.1,0,0.2c0,0.2,0,0.5,0,0.7c0,0,0,0.1,0,0.1c0,0,0,0,0,0c0,0,0,0,0,0.1
			c0.5,9.6,5.3,18.2,13.2,23.6c5.1,3.5,11.1,5.3,17.2,5.3c0.7,0,1.3,0,2-0.1c-0.3,4.4-0.2,8.5-0.1,11.9c-2.4-1.4-5.1-2.2-7.9-2.3
			C683.3,392.8,678.2,395.1,674.6,399z M686.6,364.7c-1.2-0.8-2.8-0.6-3.7,0.6c-0.8,1.2-0.6,2.8,0.6,3.7l7.7,5.6
			c-3-0.5-5.9-1.7-8.5-3.5c-4.6-3.1-7.7-7.8-8.9-13.1c4.9-0.4,9.9,0.9,14.1,3.7c3.5,2.4,6.2,5.8,7.8,9.6L686.6,364.7z M659.9,419.6
			c-5.2-0.3-9.1-4.7-8.8-9.9c0.1-2.5,1.2-4.8,3.1-6.5c1.7-1.6,3.9-2.4,6.2-2.4c0.2,0,0.3,0,0.5,0c2.5,0.1,4.8,1.2,6.5,3.1
			c1.7,1.9,2.5,4.3,2.4,6.8C669.5,415.9,665.1,419.9,659.9,419.6z M673.7,444.9c-5.2-0.3-9.1-4.7-8.8-9.9c0.3-5,4.4-8.9,9.4-8.9
			c0.2,0,0.3,0,0.5,0c2.5,0.1,4.8,1.2,6.5,3.1c1.7,1.9,2.5,4.3,2.4,6.8c-0.1,2.6-1.3,4.9-3.1,6.5c-1.1,0.5-2.2,1.1-3.2,1.8
			C676.2,444.8,675,445,673.7,444.9z M687.5,468.4c-2.5-0.1-4.8-1.2-6.5-3.1c-1.7-1.9-2.5-4.3-2.4-6.8c0.1-2.5,1.2-4.8,3.1-6.5
			c0,0,0.1-0.1,0.1-0.1c1.1-0.5,2.1-1.1,3-1.8c1-0.4,2.1-0.5,3.1-0.5c0.2,0,0.3,0,0.5,0c0.9,0,1.8,0.2,2.6,0.5c1,0.7,2,1.3,3.1,1.8
			c0.3,0.2,0.6,0.5,0.8,0.8c1.7,1.9,2.5,4.3,2.4,6.8c-0.1,2.5-1.2,4.8-3.1,6.5C692.4,467.7,690,468.5,687.5,468.4z M711.1,483.4
			c-0.1,2.5-1.2,4.8-3.1,6.5c-1.9,1.7-4.3,2.5-6.8,2.4c-2.5-0.1-4.8-1.2-6.5-3.1c-1.7-1.9-2.5-4.3-2.4-6.8c0.1-2.5,1.2-4.8,3.1-6.5
			c1.7-1.6,3.9-2.4,6.2-2.4c0.2,0,0.3,0,0.5,0c2.5,0.1,4.8,1.2,6.5,3.1C710.4,478.5,711.2,480.9,711.1,483.4z M724.8,459.5
			c-0.1,2.5-1.2,4.8-3.1,6.5c-1.9,1.7-4.3,2.5-6.8,2.4c-2.5-0.1-4.8-1.2-6.5-3.1c-1.7-1.9-2.5-4.3-2.4-6.8c0.1-2.5,1.2-4.8,3.1-6.5
			c0,0,0.1-0.1,0.1-0.1c1.1-0.5,2.1-1.1,3-1.8c1-0.4,2.1-0.5,3.1-0.5c0.2,0,0.3,0,0.5,0c0.9,0,1.8,0.2,2.6,0.5c1,0.7,2,1.3,3.1,1.8
			c0.3,0.2,0.6,0.5,0.8,0.8C724.1,454.6,725,457,724.8,459.5z M733.6,409.7c0.3-5,4.4-8.9,9.4-8.9c0.2,0,0.3,0,0.5,0
			c2.5,0.1,4.8,1.2,6.5,3.1c1.7,1.9,2.5,4.3,2.4,6.8c-0.1,2.5-1.2,4.8-3.1,6.5c-1.9,1.7-4.3,2.5-6.8,2.4
			C737.3,419.3,733.3,414.9,733.6,409.7z M729.2,426.2c0.2,0,0.3,0,0.5,0c5.2,0.3,9.1,4.7,8.8,9.9c-0.3,5.2-4.7,9.1-9.9,8.8
			c-0.9-0.1-1.8-0.2-2.6-0.5c-0.9-0.7-2-1.3-3-1.8c-2.1-1.8-3.4-4.6-3.2-7.6C720.1,430,724.3,426.2,729.2,426.2z M706.1,410.5
			c0.1-2.5,1.2-4.8,3.1-6.5c1.7-1.6,3.9-2.4,6.2-2.4c0.2,0,0.3,0,0.5,0c2.5,0.1,4.8,1.2,6.5,3.1c1.7,1.9,2.5,4.3,2.4,6.8
			c-0.1,2.5-1.2,4.8-3.1,6.5c-1.9,1.7-4.3,2.5-6.8,2.4c-2.5-0.1-4.8-1.2-6.5-3.1C706.8,415.4,706,413,706.1,410.5z M701.7,426.2
			c0.2,0,0.3,0,0.5,0c2.5,0.1,4.8,1.2,6.5,3.1c1.7,1.9,2.5,4.3,2.4,6.8c-0.1,2.5-1.2,4.8-3.1,6.5c0,0,0,0,0,0
			c-1.1,0.5-2.2,1.1-3.2,1.9c-1.1,0.4-2.3,0.6-3.6,0.5c-0.9,0-1.8-0.2-2.6-0.5c-1-0.7-2-1.3-3.1-1.8c-2.1-1.8-3.3-4.6-3.2-7.5
			c0.1-2.5,1.2-4.8,3.1-6.5C697.2,427,699.4,426.2,701.7,426.2z M694.9,405c1.7,1.9,2.5,4.3,2.4,6.8c-0.1,2.5-1.2,4.8-3.1,6.5
			c-1.9,1.7-4.3,2.5-6.8,2.4c-2.5-0.1-4.8-1.2-6.5-3.1c-1.7-1.9-2.5-4.3-2.4-6.8c0.1-2.5,1.2-4.8,3.1-6.5c1.7-1.6,3.9-2.4,6.2-2.4
			c0.2,0,0.3,0,0.5,0C691,402,693.3,403.1,694.9,405z"/>
		<g id="XMLID_60_">
			<path id="XMLID_105_" fill="#414042" d="M947.3,421.3c0,20.8,16.7,60.8,39.6,60.8s39.6-40,39.6-60.8c0-12.6-5.9-22.2-16.3-27.6
				c5.7-3.2,10-8.4,12.1-14.7c0,0,0,0,0-0.1c0,0,0,0,0,0c0,0,0-0.1,0-0.1c0.1-0.2,0.1-0.5,0.2-0.7c0-0.1,0-0.1,0-0.2
				c0-0.2,0-0.4,0-0.6c0-0.1,0-0.2,0-0.2c0-0.2-0.1-0.4-0.1-0.6c0-0.1,0-0.1-0.1-0.2c-0.1-0.2-0.1-0.4-0.2-0.6c0,0-0.1-0.1-0.1-0.1
				c-0.1-0.2-0.2-0.4-0.4-0.6c0,0-0.1-0.1-0.1-0.1c-0.1-0.2-0.3-0.4-0.5-0.5c0,0-0.1-0.1-0.1-0.1c-0.2-0.1-0.3-0.3-0.5-0.4
				c-6.7-4-14.8-4.9-22.2-2.4c-0.1,0-0.1,0-0.2,0.1c-0.9-6.5-4.2-12.5-9.4-16.8c0,0,0,0,0,0c0,0,0,0,0,0c0,0-0.1-0.1-0.1-0.1
				c-0.2-0.1-0.4-0.3-0.6-0.4c-0.1,0-0.2-0.1-0.2-0.1c-0.2-0.1-0.4-0.2-0.6-0.2c-0.1,0-0.2,0-0.3-0.1c-0.2,0-0.4-0.1-0.6-0.1
				c-0.1,0-0.1,0-0.2,0c-0.2,0-0.4,0-0.6,0c0,0-0.1,0-0.1,0c-0.2,0-0.5,0.1-0.7,0.1c0,0-0.1,0-0.1,0c-0.2,0.1-0.5,0.2-0.7,0.3
				c0,0-0.1,0.1-0.1,0.1c-0.2,0.1-0.4,0.2-0.6,0.4c-4.9,3.8-8.4,10.2-9.7,17.1c-0.2-0.1-0.4-0.2-0.6-0.2c-7.4-2.5-15.5-1.6-22.2,2.4
				c-0.2,0.1-0.4,0.3-0.5,0.4c0,0-0.1,0.1-0.1,0.1c-0.2,0.2-0.3,0.3-0.5,0.5c0,0-0.1,0.1-0.1,0.1c-0.1,0.2-0.3,0.4-0.4,0.6
				c0,0-0.1,0.1-0.1,0.1c-0.1,0.2-0.2,0.4-0.2,0.6c0,0.1-0.1,0.1-0.1,0.2c-0.1,0.2-0.1,0.4-0.1,0.6c0,0.1,0,0.2,0,0.2
				c0,0.2,0,0.4,0,0.6c0,0.1,0,0.1,0,0.2c0,0.2,0.1,0.5,0.2,0.7c0,0,0,0.1,0,0.1c0,0,0,0,0,0c0,0,0,0,0,0.1
				c2.3,6.9,7.2,12.3,13.5,15.4C952.8,400,947.3,409.3,947.3,421.3z M995.6,382.7c0.5-0.2,1-0.6,1.4-1c1.3-0.8,2.7-1.5,4.2-2
				c3.7-1.3,7.7-1.2,11.4,0c-2.2,3.7-5.6,6.4-9.7,7.8c-3.7,1.3-7.7,1.2-11.4,0C992.5,385.7,993.9,384,995.6,382.7z M981.7,376.2
				c0.2-4.3,1.8-8.7,4.2-12c2.6,3.3,3.9,7.5,3.7,11.8c0,0.1,0,0.1,0,0.2c-1.5,1.3-2.9,2.7-4,4.2c-1.1-1.5-2.4-2.9-3.9-4.1
				C981.7,376.3,981.7,376.3,981.7,376.2z M958.7,379.7c3.7-1.2,7.7-1.2,11.4,0c1.7,0.6,3.3,1.4,4.7,2.4c2,1.4,3.7,3.3,5,5.5
				c-3.7,1.2-7.7,1.2-11.4,0C964.2,386.1,960.8,383.4,958.7,379.7z M987,397.5c9.3,0,30.9,2.3,30.9,23.9c0,19.1-15.3,52.1-30.9,52.1
				s-30.9-33-30.9-52.1C956.1,399.8,977.7,397.5,987,397.5z"/>
			<path id="XMLID_75_" fill="#414042" d="M989.9,453.5c0-1.6-1.3-5-2.9-5s-2.9,3.4-2.9,5c0,1.6,1.3,2.9,2.9,2.9
				S989.9,455.2,989.9,453.5z"/>
			<path id="XMLID_61_" fill="#414042" d="M974.1,444.8c0-1.6-1.3-5-2.9-5s-2.9,3.4-2.9,5s1.3,2.9,2.9,2.9S974.1,446.4,974.1,444.8z
				"/>
			<path id="XMLID_73_" fill="#414042" d="M1005.7,444.8c0-1.6-1.3-5-2.9-5c-1.6,0-2.9,3.4-2.9,5s1.3,2.9,2.9,2.9
				C1004.3,447.7,1005.7,446.4,1005.7,444.8z"/>
			<path id="XMLID_88_" fill="#414042" d="M1012.2,418.5c0-1.6-1.3-5-2.9-5c-1.6,0-2.9,3.4-2.9,5s1.3,2.9,2.9,2.9
				C1010.9,421.4,1012.2,420.1,1012.2,418.5z"/>
			<path id="XMLID_89_" fill="#414042" d="M968.2,418.5c0-1.6-1.3-5-2.9-5c-1.6,0-2.9,3.4-2.9,5s1.3,2.9,2.9,2.9
				C966.9,421.4,968.2,420.1,968.2,418.5z"/>
			<path id="XMLID_94_" fill="#414042" d="M981.1,430.8c0-1.6-1.3-5-2.9-5c-1.6,0-2.9,3.4-2.9,5s1.3,2.9,2.9,2.9
				C979.8,433.7,981.1,432.4,981.1,430.8z"/>
			<path id="XMLID_95_" fill="#414042" d="M999.8,429.9c0-1.6-1.3-5-2.9-5s-2.9,3.4-2.9,5s1.3,2.9,2.9,2.9S999.8,431.5,999.8,429.9z
				"/>
			<path id="XMLID_96_" fill="#414042" d="M991.4,410.6c0-1.6-1.3-5-2.9-5s-2.9,3.4-2.9,5c0,1.6,1.3,2.9,2.9,2.9
				S991.4,412.2,991.4,410.6z"/>
		</g>
		<g id="XMLID_57_">
			<path id="XMLID_112_" fill="#414042" d="M1333.2,414.2c0-33.1-26.9-59.9-59.9-59.9s-59.9,26.9-59.9,59.9
				c0,33.1,26.9,59.9,59.9,59.9S1333.2,447.2,1333.2,414.2z M1222,414.2c0-28.2,23-51.2,51.2-51.2c28.2,0,51.2,23,51.2,51.2
				c0,28.2-23,51.2-51.2,51.2C1245,465.4,1222,442.4,1222,414.2z"/>
			<path id="XMLID_98_" fill="#414042" d="M1275,395.6v-20.8c0-1-0.8-1.8-1.8-1.8c-1,0-1.8,0.8-1.8,1.8v20.8c0,1,0.8,1.8,1.8,1.8
				C1274.2,397.4,1275,396.6,1275,395.6z"/>
			<path id="XMLID_58_" fill="#414042" d="M1263.9,399.8c0.3,0,0.6-0.1,0.9-0.2c0.8-0.5,1.1-1.6,0.6-2.4l-10.4-18
				c-0.5-0.8-1.6-1.1-2.4-0.6c-0.8,0.5-1.1,1.6-0.6,2.4l10.4,18C1262.7,399.5,1263.3,399.8,1263.9,399.8z"/>
			<path id="XMLID_99_" fill="#414042" d="M1256.3,406.4c0.3,0.2,0.6,0.2,0.9,0.2c0.6,0,1.2-0.3,1.5-0.9c0.5-0.8,0.2-1.9-0.6-2.4
				l-18-10.4c-0.8-0.5-1.9-0.2-2.4,0.6c-0.5,0.8-0.2,1.9,0.6,2.4L1256.3,406.4z"/>
			<path id="XMLID_113_" fill="#414042" d="M1254.7,415.9c1,0,1.8-0.8,1.8-1.8c0-1-0.8-1.8-1.8-1.8h-20.8c-1,0-1.8,0.8-1.8,1.8
				c0,1,0.8,1.8,1.8,1.8H1254.7z"/>
			<path id="XMLID_114_" fill="#414042" d="M1239.2,435.6c0.3,0,0.6-0.1,0.9-0.2l18-10.4c0.8-0.5,1.1-1.6,0.6-2.4
				c-0.5-0.8-1.6-1.1-2.4-0.6l-18,10.4c-0.8,0.5-1.1,1.6-0.6,2.4C1238,435.3,1238.5,435.6,1239.2,435.6z"/>
			<path id="XMLID_116_" fill="#414042" d="M1253.6,450c0.6,0,1.2-0.3,1.5-0.9l10.4-18c0.5-0.8,0.2-1.9-0.6-2.4
				c-0.8-0.5-1.9-0.2-2.4,0.6l-10.4,18c-0.5,0.8-0.2,1.9,0.6,2.4C1253,449.9,1253.3,450,1253.6,450z"/>
			<path id="XMLID_117_" fill="#414042" d="M1275,453.5v-20.8c0-1-0.8-1.8-1.8-1.8c-1,0-1.8,0.8-1.8,1.8v20.8c0,1,0.8,1.8,1.8,1.8
				C1274.2,455.3,1275,454.5,1275,453.5z"/>
			<path id="XMLID_120_" fill="#414042" d="M1292.9,450c0.3,0,0.6-0.1,0.9-0.2c0.8-0.5,1.1-1.6,0.6-2.4l-10.4-18
				c-0.5-0.8-1.6-1.1-2.4-0.6c-0.8,0.5-1.1,1.6-0.6,2.4l10.4,18C1291.7,449.7,1292.3,450,1292.9,450z"/>
			<path id="XMLID_121_" fill="#414042" d="M1306.4,435.4c0.3,0.2,0.6,0.2,0.9,0.2c0.6,0,1.2-0.3,1.5-0.9c0.5-0.8,0.2-1.9-0.6-2.4
				l-18-10.4c-0.8-0.5-1.9-0.2-2.4,0.6c-0.5,0.8-0.2,1.9,0.6,2.4L1306.4,435.4z"/>
			<path id="XMLID_130_" fill="#414042" d="M1312.6,415.9c1,0,1.8-0.8,1.8-1.8c0-1-0.8-1.8-1.8-1.8h-20.8c-1,0-1.8,0.8-1.8,1.8
				c0,1,0.8,1.8,1.8,1.8H1312.6z"/>
			<path id="XMLID_133_" fill="#414042" d="M1289.3,406.6c0.3,0,0.6-0.1,0.9-0.2l18-10.4c0.8-0.5,1.1-1.6,0.6-2.4
				c-0.5-0.8-1.6-1.1-2.4-0.6l-18,10.4c-0.8,0.5-1.1,1.6-0.6,2.4C1288.1,406.3,1288.7,406.6,1289.3,406.6z"/>
			<path id="XMLID_148_" fill="#414042" d="M1282.5,399.8c0.6,0,1.2-0.3,1.5-0.9l10.4-18c0.5-0.8,0.2-1.9-0.6-2.4
				c-0.8-0.5-1.9-0.2-2.4,0.6l-10.4,18c-0.5,0.8-0.2,1.9,0.6,2.4C1281.9,399.8,1282.2,399.8,1282.5,399.8z"/>
		</g>
		<path id="XMLID_168_" fill="#414042" d="M111.8,604.5c-3.4,0-6.7,0.8-9.7,2.3c-1.2-0.2-2.5-0.3-3.8-0.3
			c-17.7,0-31.5,20.8-31.5,47.4s13.8,47.4,31.5,47.4c1.3,0,2.5-0.1,3.7-0.3c3.1,1.5,6.3,2.3,9.7,2.3c2.8,0,5.6-0.6,8.2-1.7
			c3.1,1.6,6.4,2.4,9.8,2.4c3.2,0,6.2-0.7,9.1-2.1c2.8,1.1,5.3,1.3,8.1,1.3c3.6,0,7.1-0.8,10.5-2.3c1.4,0.2,2.8,0.4,4.2,0.4
			c18.7,0,33.9-21.3,33.9-47.4s-15.2-47.4-33.9-47.4c-1.4,0-2.8,0.1-4.2,0.4c-3.3-1.5-6.8-2.3-10.4-2.3c-2.6,0-4.7,0.2-7.1,1.1
			c-0.4-0.2-0.7-0.4-1.1-0.5c0.6-5.2,0.8-14.7-4.1-21.7c-3.3-4.8-8.3-7.6-14.8-8.3c-1.7-0.2-3.4,0.6-4.3,2.1l-5.7,9.3
			c-0.6,1-0.8,2.3-0.5,3.5c0.3,1.2,1.1,2.2,2.2,2.7c0.1,0,8.5,4.5,10.2,11.9c-1,0.4-1.9,0.8-2.8,1.4
			C116.7,605,114.4,604.5,111.8,604.5z M75.6,654c0-15.9,6-29.9,14.3-35.8c-5.9,8.9-9.6,21.6-9.6,35.8s3.7,26.8,9.6,35.8
			C81.6,683.9,75.6,669.9,75.6,654z M105.1,692.7C105,692.7,105,692.6,105.1,692.7c-9.2-5.4-16-21-16-38.7
			c0-21.3,9.7-39.3,21.5-40.6c-7.5,9.2-12.2,23.6-12.2,40.2c0,17.1,5,31.9,12.9,41C109.1,694.5,107,693.8,105.1,692.7z M186.8,654
			c0,16.8-7,31.2-16.8,36.5c0.5-0.7,1.1-1.5,1.6-2.2c6-9.2,9.4-21.4,9.4-34.2s-3.3-25-9.4-34.2c-0.5-0.8-1-1.5-1.6-2.2
			C179.8,622.8,186.8,637.1,186.8,654z M172.2,654c0,21.2-10.7,39.3-23.7,40.6c7.8-9.1,12.8-23.9,12.8-40.9
			c0-16.5-4.7-30.9-12.1-40.1C161.9,615.3,172.2,633.1,172.2,654z M119.7,587.4l1.9-3.1c2.6,0.7,4.6,2.1,6,4.1
			c2.6,3.7,3,9.2,2.8,13.5C128.5,595,123.4,590.1,119.7,587.4z M122,614.5c0.1-0.1,0.2-0.1,0.3-0.2c2.4-1.6,4.9-2.5,7.6-2.5
			c2.6,0,5.1,0.8,7.4,2.4c0.1,0,0.1,0.1,0.2,0.1c8.7,5.9,15.1,21.5,15.1,39.3c0,18.3-6.8,34.2-15.9,39.7c-0.1,0-0.2,0.1-0.3,0.2
			c-2.1,1.2-4.3,1.9-6.6,1.9c-12.3,0-22.8-19.1-22.8-41.8C107.1,636,113.4,620.5,122,614.5z"/>
		<path id="XMLID_215_" fill="#414042" d="M383.1,686.2c0,18.4,15,33.4,33.4,33.4s33.4-15,33.4-33.4l0-1.6c0-14.1,0.1-43-13.1-57.8
			c7.6-15.7,11.6-31.6,11.1-43.8c0,0,0,0,0,0c0-0.2-0.1-0.5-0.1-0.7c0-0.1,0-0.1,0-0.2c-0.1-0.2-0.1-0.4-0.2-0.6
			c0-0.1,0-0.1-0.1-0.2c-0.1-0.2-0.2-0.3-0.3-0.5c-0.1-0.1-0.1-0.2-0.2-0.2c0,0,0,0,0-0.1c-0.1-0.1-0.2-0.2-0.3-0.4
			c-0.1-0.1-0.1-0.1-0.2-0.2c-0.2-0.1-0.3-0.3-0.5-0.4c-0.1,0-0.1-0.1-0.2-0.1c-0.2-0.1-0.4-0.2-0.6-0.3c0,0-0.1,0-0.1-0.1
			c-0.2-0.1-0.5-0.2-0.8-0.2c0,0,0,0-0.1,0c-1.1-0.2-2.3,0.1-3.3,0.8c0,0,0,0,0,0c0,0-0.1,0-0.1,0.1c-4.5,3.6-9.1,8.3-13.4,14
			c-1.3-9.4-3.7-17.8-7-24.5c0,0,0,0,0-0.1c0,0,0-0.1,0-0.1c-0.6-1-1.5-1.8-2.5-2.1c0,0-0.1,0-0.1,0c-0.2-0.1-0.5-0.1-0.7-0.2
			c0,0-0.1,0-0.1,0c-0.2,0-0.5,0-0.7,0c0,0-0.1,0-0.1,0c-0.2,0-0.5,0.1-0.7,0.1c-0.1,0-0.1,0-0.2,0.1c-0.2,0.1-0.4,0.1-0.5,0.2
			c0,0-0.1,0-0.1,0.1c-0.1,0-0.1,0.1-0.2,0.1c-0.2,0.1-0.4,0.2-0.6,0.4c0,0-0.1,0.1-0.1,0.1c-0.2,0.2-0.4,0.3-0.5,0.5
			c0,0-0.1,0.1-0.1,0.1c-0.1,0.2-0.3,0.4-0.4,0.6c0,0,0,0,0,0c-3.4,6.3-6.1,14.6-7.6,24c-3.9-4.8-7.9-8.9-11.9-12.1c0,0-0.1,0-0.1,0
			c0,0-0.1,0-0.1-0.1c-1-0.7-2.1-0.9-3.2-0.8c0,0-0.1,0-0.1,0c-0.2,0-0.5,0.1-0.7,0.2c0,0-0.1,0-0.1,0.1c-0.2,0.1-0.4,0.2-0.6,0.3
			c-0.1,0-0.1,0.1-0.2,0.1c-0.2,0.1-0.4,0.2-0.5,0.4c-0.1,0.1-0.1,0.1-0.2,0.2c-0.1,0.1-0.2,0.2-0.4,0.4c0,0,0,0,0,0.1
			c-0.1,0.1-0.1,0.2-0.1,0.2c-0.1,0.2-0.2,0.3-0.3,0.5c0,0,0,0.1-0.1,0.1c-0.1,0.2-0.2,0.4-0.2,0.7c0,0.1,0,0.1,0,0.2
			c-0.1,0.2-0.1,0.5-0.1,0.7c0,0,0,0,0,0c-0.6,12.1,3.4,28,11,43.6c-3.5,4.4-6.7,10.6-9.1,19.2C383.5,662.2,383.1,679.4,383.1,686.2
			z M392.2,690.5l8.7-4.1l11.4,5.3l-11.4,5.3l-8.1-3.8C392.6,692.4,392.4,691.5,392.2,690.5z M416.5,635.8l11.4,5.3l-11.4,5.3
			l-11.4-5.3L416.5,635.8z M401,639.2l-0.7-0.3c1.7-3.3,3.6-6,5.7-8l6.4,3L401,639.2z M420.6,633.9l7.4-3.4c0.5,0.4,1,0.8,1.4,1.3
			c1.8,1.8,3.3,4,4.6,6.5l-2.1,1L420.6,633.9z M427.8,655.6l-11.4,5.3l-11.4-5.3l11.4-5.3L427.8,655.6z M427.8,670.1l-11.4,5.3
			l-11.4-5.3l11.4-5.3L427.8,670.1z M427.8,684.5l-11.4,5.3l-11.4-5.3l11.4-5.3L427.8,684.5z M427.8,699l-11.4,5.3l-11.4-5.3
			l11.4-5.3L427.8,699z M395.8,699.5c-0.3-0.4-0.6-0.9-0.8-1.4l1.9,0.9L395.8,699.5z M397.9,702.4l3-1.4l11.4,5.3l-5.5,2.6
			C403.4,707.4,400.4,705.1,397.9,702.4z M416.5,710.8c-1.6,0-3.1-0.2-4.6-0.4l4.6-2.2l4.6,2.2C419.6,710.6,418,710.8,416.5,710.8z
			 M426.1,708.8l-5.5-2.6l11.4-5.3l3,1.4C432.6,705.1,429.5,707.4,426.1,708.8z M437.1,699.5l-1-0.5l1.9-0.9
			C437.7,698.6,437.4,699.1,437.1,699.5z M440,693.3l-8.1,3.8l-11.4-5.3l11.4-5.3l8.7,4.1C440.5,691.5,440.3,692.4,440,693.3z
			 M441.1,684.5l0,1.6c0,0.2,0,0.5,0,0.7l-5-2.3l5-2.3C441.1,683,441.1,683.8,441.1,684.5z M441.1,678.4l-9.1,4.3l-11.4-5.3L432,672
			l9.1,4.2C441,677,441.1,677.7,441.1,678.4z M440.9,672.3l-4.8-2.2l4.6-2.1C440.8,669.4,440.9,670.9,440.9,672.3z M440.4,664.2
			l-8.4,3.9l-11.4-5.3l11.4-5.3l8.1,3.8C440.2,662.3,440.3,663.3,440.4,664.2z M439.6,657.2l-3.5-1.6l3-1.4
			C439.2,655.2,439.4,656.2,439.6,657.2z M436.9,645.4c0.5,1.7,1,3.5,1.4,5.3l-6.4,3l-11.4-5.3l11.4-5.3L436.9,645.4z M422.7,618
			c4.5-9.2,10-17.5,15.7-23.9c-1.3,8.3-4.3,17.8-8.6,27.1c-2.2-1.3-4.7-2.2-7.3-2.7C422.5,618.3,422.6,618.1,422.7,618z
			 M424.4,628.2l-8,3.7l-7.4-3.4c2.3-1.3,4.7-2,7.4-2c0,0,0,0,0,0C419.4,626.6,422.1,627.1,424.4,628.2z M412.5,603.3
			c0.6-7.4,1.9-14.3,3.7-20.2c1.8,6.5,3,14,3.4,22c-1.1,1.8-2.1,3.7-3.1,5.6c-1.3-2.4-2.7-4.8-4.1-7.1
			C412.5,603.5,412.5,603.4,412.5,603.3z M395.4,595.2c5.5,6.2,10.9,14.3,15.3,23.2c-2.3,0.6-4.7,1.5-7.1,3.1
			C399.5,612.5,396.7,603.3,395.4,595.2z M396.3,649.3c0.5-1.7,1-3.3,1.5-4.8l3.2-1.5l11.4,5.3l-11.4,5.3l-5.2-2.4
			C395.9,650.6,396.1,650,396.3,649.3z M394.9,654.7l1.9,0.9l-2.3,1.1C394.7,656,394.8,655.4,394.9,654.7z M393.8,660.9l7.2-3.4
			l11.4,5.3l-11.4,5.3l-7.7-3.6C393.4,663.3,393.6,662.1,393.8,660.9z M392.8,668.2l4,1.9l-4.4,2.1
			C392.5,670.9,392.7,669.5,392.8,668.2z M392.1,676.1l8.8-4.1l11.4,5.3l-11.4,5.3l-8.9-4.2C392.1,677.7,392.1,676.9,392.1,676.1z
			 M391.9,682.2l4.9,2.3l-5,2.3c0-0.2,0-0.5,0-0.7C391.8,685.1,391.8,683.8,391.9,682.2z"/>
		<path id="XMLID_189_" fill="#414042" d="M701.7,701.6c28,0,50.8-20.7,50.8-46.1c0-9.9-3.5-19.6-10-27.5c0.2-0.4,0.4-0.8,0.5-1.3
			c3.6-9.4-3.4-20.4-15.7-25.1c-5-1.9-10.3-2.4-15-1.6c-2.2-0.9-4.5-1.5-7-1.8c-0.4-2.5-0.4-5.9,1-8.3c1.2-1.9,3.2-3.2,6.3-3.7
			c2.4-0.4,4-2.7,3.5-5.1c-0.4-2.4-2.7-4-5.1-3.5c-7.1,1.3-10.6,5-12.3,7.9c-2.6,4.4-2.7,9.3-2.3,13c-1.8,0.4-3.6,0.9-5.2,1.6
			c-4.7-0.8-10-0.3-15,1.6c-12.4,4.7-19.3,15.7-15.7,25.1c0.2,0.4,0.3,0.8,0.5,1.3c-6.5,7.9-10,17.6-10,27.5
			C650.9,681,673.7,701.6,701.7,701.6z M723.2,609.6c0.3,0.1,0.6,0.2,1,0.3c7.5,2.8,12.4,9.2,10.6,13.8c-1.4,3.8-7,5.5-13.2,4.4
			c2.3-3,3.7-6.6,3.7-10.5C725.3,614.7,724.6,612,723.2,609.6z M701.7,606.8c8,0,14.8,5,14.8,10.8s-6.8,10.8-14.8,10.8
			s-14.8-5-14.8-10.8S693.7,606.8,701.7,606.8z M679.3,609.9c0.3-0.1,0.6-0.2,1-0.3c-1.3,2.5-2.1,5.2-2.1,8c0,3.9,1.4,7.5,3.7,10.5
			c-6.1,1.1-11.7-0.6-13.2-4.4C666.9,619.1,671.7,612.7,679.3,609.9z M667.1,634.5c3.1,1.8,6.9,2.8,11.1,2.8c3.4,0,7.1-0.7,10.7-2
			c0.4-0.2,0.9-0.3,1.3-0.5c3.4,1.6,7.4,2.5,11.6,2.5c4.2,0,8.2-0.9,11.6-2.5c0.4,0.2,0.9,0.4,1.3,0.5c3.6,1.4,7.3,2,10.7,2
			c4.2,0,8-1,11.1-2.8c4.8,6.2,7.4,13.5,7.4,21.1c0,20.6-18.9,37.3-42,37.3s-42-16.7-42-37.3C659.7,648,662.3,640.6,667.1,634.5z"/>
		<g id="XMLID_81_">
			<path id="XMLID_143_" fill="#414042" d="M1045.5,639.6c0-32.3-26.3-58.5-58.5-58.5s-58.5,26.3-58.5,58.5s26.3,58.5,58.5,58.5
				S1045.5,671.8,1045.5,639.6z M937.2,639.6c0-27.4,22.3-49.8,49.8-49.8c27.4,0,49.8,22.3,49.8,49.8s-22.3,49.8-49.8,49.8
				C959.5,689.3,937.2,667,937.2,639.6z"/>
			<path id="XMLID_162_" fill="#414042" d="M952.4,614.1c-3.8,1.6-6.6,5.4-8.6,11.5c-2,6.1-1.9,10.8,0.2,14.3
				c2.6,4.3,7.4,5.6,10.8,6.2c1.7,0.3,4.3,0.6,7.2,0.6c1.2,0,2.4-0.1,3.7-0.2c-3.8,2.3-6.9,5-8.6,6.8c-2.4,2.5-5.5,6.4-5.1,11.3
				c0.4,4.1,3.1,7.9,8.3,11.7c4.2,3,7.9,4.5,11.2,4.5c0.8,0,1.7-0.1,2.5-0.3c4.9-1.1,7.6-5.3,9.2-8.3c1.1-2.1,2.8-6,3.8-10.2
				c1,4.3,2.7,8.2,3.8,10.2c1.6,3,4.4,7.2,9.2,8.3c0.8,0.2,1.6,0.3,2.5,0.3c3.4,0,7.1-1.5,11.2-4.5c5.2-3.8,7.9-7.6,8.3-11.7
				c0.4-5-2.7-8.9-5.1-11.3c-1.6-1.7-4.8-4.5-8.6-6.8c1.3,0.1,2.5,0.2,3.7,0.2c3,0,5.6-0.3,7.2-0.6c3.4-0.6,8.2-1.9,10.8-6.2
				c2.1-3.5,2.2-8.2,0.2-14.3c-2-6.1-4.8-9.9-8.6-11.5c-4.6-2-9.2-0.2-12.4,1.3c-2.1,1-5.7,3.2-9.1,6.1c1.7-4.1,2.6-8.2,3-10.5
				c0.5-3.4,0.7-8.4-2.6-12.2c-2.7-3.1-7.2-4.6-13.6-4.6c-6.4,0-10.9,1.5-13.6,4.6c-3.3,3.8-3,8.7-2.6,12.2c0.3,2.3,1.3,6.4,3,10.5
				c-3.3-2.9-6.9-5-9.1-6.1C961.6,613.9,957,612.1,952.4,614.1z M1013,623.3c1.8-0.9,3.2-1.3,4.2-1.3c0.3,0,0.6,0.1,0.9,0.2
				c0.6,0.3,2.1,1.4,3.7,6.1c1.6,4.8,0.9,6.6,0.6,7.1c-0.5,0.9-2.2,1.6-4.8,2.1c-7.2,1.3-15.9-0.3-16.6-2.5
				C1000.3,632.9,1006.4,626.4,1013,623.3z M1010.5,659.3c1.9,1.9,2.8,3.5,2.7,4.5c-0.1,0.6-0.6,2.5-4.7,5.4c-4.1,3-6,2.9-6.6,2.8
				c-1-0.2-2.2-1.6-3.5-3.9c-3.5-6.5-4.6-15.2-2.8-16.6c0.2-0.2,0.6-0.3,1-0.3C999.6,651.3,1006.2,654.7,1010.5,659.3z M980,604.5
				c0.4-0.5,2-1.6,7-1.6c5,0,6.6,1.1,7,1.6c0.7,0.8,0.9,2.5,0.5,5.2c-1,7.3-5.2,15-7.5,15s-6.5-7.8-7.5-15
				C979.1,607.1,979.3,605.3,980,604.5z M981.2,637.7c0.7-2,0.6-4,0.1-6c1.7,1.1,3.6,1.8,5.7,1.8s4-0.7,5.7-1.8
				c-0.5,1.9-0.6,3.9,0.1,6c0.7,2,1.9,3.6,3.5,4.8c-2,0.1-3.9,0.6-5.7,1.9c-1.7,1.2-2.8,2.9-3.5,4.8c-0.7-1.9-1.8-3.5-3.5-4.8
				c-1.7-1.3-3.7-1.8-5.7-1.9C979.4,641.3,980.6,639.7,981.2,637.7z M977.2,651.3c0.4,0,0.8,0.1,1,0.3c1.8,1.3,0.7,10.1-2.8,16.6
				c-1.3,2.4-2.4,3.7-3.5,3.9c-0.6,0.1-2.5,0.2-6.6-2.8c-4.1-3-4.6-4.8-4.7-5.4c-0.1-1,0.8-2.6,2.7-4.5
				C967.8,654.7,974.4,651.3,977.2,651.3z M972.9,635c-0.7,2.1-9.4,3.8-16.6,2.5c-2.7-0.5-4.3-1.2-4.8-2.1c-0.3-0.6-0.9-2.4,0.6-7.1
				c1.6-4.8,3.1-5.9,3.7-6.1c0.2-0.1,0.5-0.2,0.9-0.2c1,0,2.4,0.4,4.2,1.3C967.5,626.4,973.6,632.9,972.9,635z"/>
		</g>
		<g id="XMLID_45_">
			<path id="XMLID_131_" fill="#414042" d="M1218.9,659.4c0.2,1.3,1,2.4,2.2,3.1l6.4,3.6l-3.3,7.3c-0.6,1.2-0.5,2.6,0.1,3.8
				c0.6,1.2,1.8,2,3.1,2.3l6.9,1.2l-1.1,7.9c-0.2,1.4,0.3,2.8,1.3,3.7c1,1,2.4,1.4,3.8,1.2l6.6-1.1l1.2,7.7c0.2,1.4,1.1,2.6,2.4,3.3
				c1.3,0.6,2.8,0.6,4.1-0.1l5.9-3.2l3.1,6.6c0.6,1.3,1.9,2.2,3.3,2.5c1.4,0.2,2.9-0.3,3.9-1.4l4.7-5.1l4.7,5.1
				c0.8,0.9,2,1.4,3.2,1.4c0.2,0,0.4,0,0.7-0.1c1.4-0.2,2.7-1.1,3.3-2.5l3.1-6.6l5.9,3.2c1.3,0.7,2.8,0.7,4.1,0.1
				c1.3-0.6,2.2-1.9,2.4-3.3l1.2-7.7l6.6,1.1c1.4,0.2,2.8-0.2,3.8-1.2c1-1,1.5-2.4,1.3-3.7l-1.1-7.9l6.9-1.2
				c1.3-0.2,2.5-1.1,3.1-2.3c0.6-1.2,0.7-2.6,0.1-3.8l-3.3-7.3l6.4-3.6c1.2-0.7,1.9-1.8,2.2-3.1c0.2-1.3-0.2-2.6-1.1-3.6l-5.2-5.8
				l5.2-5.8c0.9-1,1.3-2.3,1.1-3.6c-0.2-1.3-1-2.4-2.2-3.1l-6.4-3.6l3.3-7.3c0.6-1.2,0.5-2.6-0.1-3.8c-0.6-1.2-1.8-2-3.1-2.3
				l-6.9-1.2l1.1-7.9c0.2-1.4-0.3-2.8-1.3-3.7c-1-1-2.4-1.4-3.8-1.2l-6.6,1.1l-1.2-7.7c-0.2-1.4-1.1-2.6-2.4-3.3
				c-1.3-0.6-2.8-0.6-4.1,0.1l-5.9,3.2l-2.5-5.3c1.9-7.5,7.1-8.3,7.6-8.4c1.5,0,2.7-0.8,3.5-2.1s0.8-2.8,0.2-4.1l-3.4-7.5
				c-0.7-1.5-2.2-2.5-3.8-2.6c-5.9-0.2-10.9,1.8-14.6,5.7c-4.2,4.6-5.9,11.1-6.5,16.8l-0.3-0.3c-1-1.1-2.4-1.6-3.9-1.4
				c-1.4,0.2-2.7,1.1-3.3,2.5l-3.1,6.6l-5.9-3.2c-1.3-0.7-2.8-0.7-4.1-0.1c-1.3,0.6-2.2,1.9-2.4,3.3l-1.2,7.7l-6.6-1.1
				c-1.4-0.2-2.8,0.2-3.8,1.2c-1,1-1.5,2.4-1.3,3.7l1.1,7.9l-6.9,1.2c-1.3,0.2-2.5,1.1-3.1,2.3c-0.6,1.2-0.7,2.6-0.1,3.8l3.3,7.3
				l-6.4,3.6c-1.2,0.7-1.9,1.8-2.2,3.1c-0.2,1.3,0.2,2.6,1.1,3.6l5.2,5.8l-5.2,5.8C1219.1,656.7,1218.7,658.1,1218.9,659.4z
				 M1281.8,581.4c1.4-1.5,3.1-2.4,5.2-2.7l0.2,0.3c-3.4,1.8-6.9,5-9,10.5C1278.8,586.4,1279.9,583.5,1281.8,581.4z M1234.3,647
				l-4.2-4.7l5.2-2.9c2-1.1,2.8-3.6,1.8-5.6l-2.7-5.8l5.4-1c2.3-0.4,3.9-2.6,3.6-4.9l-0.9-6.2l5.1,0.9c1.2,0.2,2.3-0.1,3.3-0.8
				c0.9-0.7,1.6-1.7,1.8-2.9l0.9-5.9l4.4,2.4c1.1,0.6,2.3,0.7,3.5,0.3c1.2-0.4,2.1-1.2,2.6-2.3l2.3-5l3.5,3.8c0,0,0.1,0.1,0.1,0.1
				c0.1,0.1,0.3,0.2,0.4,0.4c0.1,0.1,0.2,0.1,0.3,0.2c0.2,0.1,0.3,0.2,0.5,0.3c0.1,0,0.2,0.1,0.3,0.1c0.2,0.1,0.4,0.1,0.6,0.2
				c0.1,0,0.1,0,0.2,0.1c0.3,0.1,0.6,0.1,0.9,0.1c0.2,0,0.4,0,0.6,0c0.1,0,0.1,0,0.2,0c0.1,0,0.3-0.1,0.4-0.1c0.2,0,0.3-0.1,0.5-0.1
				c0.1,0,0.2-0.1,0.4-0.2c0.1-0.1,0.3-0.2,0.4-0.2c0.1-0.1,0.2-0.1,0.3-0.2c0.1-0.1,0.3-0.2,0.4-0.3c0,0,0.1-0.1,0.2-0.1l3.5-3.8
				l2.3,5c0.5,1.1,1.5,1.9,2.6,2.3c1.1,0.4,2.4,0.3,3.5-0.3l4.4-2.4l0.9,5.9c0.2,1.2,0.8,2.2,1.8,2.9c0.9,0.7,2.1,1,3.3,0.8l5.1-0.9
				l-0.9,6.2c-0.3,2.3,1.2,4.5,3.6,4.9l5.4,1l-2.7,5.8c-0.9,2.1-0.2,4.5,1.8,5.6l5.2,2.9l-4.2,4.7c-1.5,1.7-1.5,4.2,0,5.8l4.2,4.7
				l-5.2,2.9c-2,1.1-2.8,3.6-1.8,5.6l2.7,5.8l-5.4,1c-2.3,0.4-3.9,2.6-3.6,4.9l0.9,6.2l-5.1-0.9c-1.2-0.2-2.3,0.1-3.3,0.8
				c-0.9,0.7-1.6,1.7-1.8,2.9l-0.9,5.9l-4.4-2.4c-1.1-0.6-2.3-0.7-3.5-0.3c-1.2,0.4-2.1,1.2-2.6,2.3l-2.3,5l-3.5-3.8
				c-0.8-0.9-2-1.4-3.2-1.4c-1.2,0-2.4,0.5-3.2,1.4l-3.5,3.8l-2.3-5c-0.5-1.1-1.5-1.9-2.6-2.3c-1.2-0.4-2.4-0.3-3.5,0.3l-4.4,2.4
				l-0.9-5.9c-0.2-1.2-0.8-2.2-1.8-2.9c-0.9-0.7-2.1-1-3.3-0.8l-5.1,0.9l0.9-6.2c0.3-2.3-1.2-4.5-3.6-4.9l-5.4-1l2.7-5.8
				c0.9-2.1,0.2-4.5-1.8-5.6l-5.2-2.9l4.2-4.7C1235.8,651.2,1235.8,648.7,1234.3,647z"/>
			<path id="XMLID_115_" fill="#414042" d="M1268,685.1c0.9,0,1.8-0.3,2.6-0.8c1.1-0.8,1.8-2.1,1.8-3.5v-61.5c0-1.4-0.7-2.7-1.8-3.5
				c-1.1-0.8-2.6-1.1-3.9-0.6c-15.3,4.8-25.6,18.9-25.6,34.9s10.3,30.1,25.6,34.9C1267.2,685,1267.6,685.1,1268,685.1z M1263.7,674
				c-8.4-4.9-13.8-13.9-13.8-24.1c0-10.1,5.3-19.2,13.8-24.1V674z"/>
			<path id="XMLID_107_" fill="#414042" d="M1278.4,685.1c0.4,0,0.9-0.1,1.3-0.2c15.3-4.8,25.6-18.8,25.6-34.9s-10.3-30.1-25.6-34.9
				c-1.3-0.4-2.8-0.2-3.9,0.6c-1.1,0.8-1.8,2.1-1.8,3.5v61.5c0,1.4,0.7,2.7,1.8,3.5C1276.6,684.8,1277.5,685.1,1278.4,685.1z
				 M1282.8,625.9c8.4,4.9,13.8,13.9,13.8,24.1c0,10.1-5.3,19.1-13.8,24.1V625.9z"/>
		</g>
		<path id="XMLID_118_" fill="#414042" d="M83.2,839.7c-7.3,9.2-10.1,21.7-7.7,35.1c4.1,23.7,37.2,52.6,52.3,57.3
			c0.4,0.1,0.9,0.2,1.3,0.2c0.4,0,0.7,0,1-0.1c0.2,0,0.4-0.1,0.6-0.1c15.4-3.8,50.1-30.6,55.7-54c3.2-13.2,0.9-26-6.4-36
			c-6.1-8.4-15-13.6-24.4-14.4c-4.5-0.4-9.1-1.1-13.8-2.1c-0.7-0.2-1.4-0.3-2.1-0.5c-3.4-0.9-6.8-1.3-10.2-1.2
			c0-7.4,1.8-22.1,15.6-26.5c2.3-0.7,3.6-3.2,2.9-5.5c-0.7-2.3-3.2-3.6-5.5-2.9c-18.1,5.7-22.1,24.3-21.7,36.2
			c-4.1,0.7-8.4,1.2-12.8,1.4C98.4,827.2,89.3,831.9,83.2,839.7z M173,847.2c5.7,7.9,7.5,18.2,5,28.9c-2.7,11.1-14.3,24-26.1,33.6
			c9.7-14.2,17.8-32,17-45.9c-0.7-10.4-4.3-19.7-10.5-26.8C163.9,838.3,169.1,841.9,173,847.2z M126.5,833.1L126.5,833.1
			c1.5-0.3,3.1-0.5,4.6-0.5c1.3,0,2.7,0.1,4,0.4c0.1,0,0.3,0.1,0.4,0.1c0.5,0.1,1.1,0.2,1.6,0.3c0.2,0,0.3,0.1,0.5,0.1
			c3.2,0.9,6.4,2.5,9.3,4.6c7.8,5.9,12.5,15.2,13.2,26.1c1.2,19-19.9,50.1-31.6,58.7c-13.3-5.7-41.1-31-44.4-49.8
			c-1.9-10.9,0.2-20.9,6-28.1c4.7-5.9,11.3-9.3,18.5-9.7C114.8,835.1,120.9,834.3,126.5,833.1z"/>
		<path id="XMLID_62_" fill="#414042" d="M477.7,808.5c-0.5-1.1-1.3-1.9-2.4-2.3l-5.8-2.3c-1.1-0.4-2.4-0.4-3.5,0.1
			c-1.1,0.5-1.9,1.5-2.3,2.6c-1.1,3.2-4.7,10.5-8.5,10.9c0,0,0,0,0,0c-10.4,0.3-17.7,9.9-26.1,21.1c-5.6,7.5-12,15.9-20.1,22.6
			c-19.3,15.8-33.1,21-42.3,24.4c-8.6,3.2-15.4,5.7-15.6,15.5c-0.1,5.7,4,10.8,11.4,14.1c5.4,2.4,12,3.6,19.2,3.6
			c5.3,0,10.9-0.7,16.5-2c16.2-3.8,32.2-12.8,46.1-26.1c25-23.9,35.9-45.9,29.8-60.5c-0.8-5.6,2.3-15,3.5-18.2
			C478.2,810.8,478.2,809.6,477.7,808.5z M438.3,884.3c-27.5,26.2-56.3,28.5-70.4,23.5c26.1-3.5,48.3-19.3,63-32.8
			c17.8-16.4,28.6-33,28.7-33.2c0.5-0.8,0.3-1.9-0.5-2.4c-0.8-0.5-1.9-0.3-2.4,0.5c-0.4,0.6-40.3,61.6-94.4,64.9
			c-1.5-1.2-2.4-2.5-2.4-3.6c0.1-3.4,1-4.1,9.9-7.4c9.7-3.6,24.4-9.1,44.8-25.8c8.9-7.3,15.6-16.2,21.5-24.1
			c7.1-9.4,13.2-17.6,19.5-17.6c0,0,0,0,0,0c0.3,0,0.6,0,0.9-0.1c4.1-0.6,7.3-3.1,9.7-6.1c-0.8,3.9-1.2,8.3-0.6,11.9
			c0,0.1,0,0.2,0,0.2c0.1,0.3,0.2,0.6,0.3,0.9C469.7,841.5,464.4,859.4,438.3,884.3z"/>
		<path id="XMLID_49_" fill="#414042" d="M713.5,791.6c2.3-0.8,3.5-3.3,2.7-5.6c-0.8-2.3-3.3-3.5-5.6-2.7c-11.7,4-13.8,16.8-14,23.7
			c-16.4,2.4-20.8,16.7-24.8,29.4c-1,3.1-1.9,6.3-3.1,9.3c-1,2.7-2.9,6.1-5,9.8c-5.3,9.5-12,21.3-11.5,34.2
			c0.8,23.5,17.5,35.4,49.5,35.4s48.7-11.9,49.5-35.4c0.5-13-6.2-24.8-11.5-34.2c-2.1-3.6-4-7.1-5-9.8c-1.1-3-2.1-6.2-3.1-9.3
			c-4-13.1-8.6-27.8-26.2-29.6C705.6,801.9,707,793.8,713.5,791.6z M723.2,839c1,3.2,2,6.5,3.3,9.8c1.2,3.3,3.3,7,5.6,11
			c4.8,8.5,10.8,19.1,10.4,29.6c-0.4,12.5-5.5,26.9-40.7,26.9S661.4,902,661,889.5c-0.4-10.5,5.6-21.1,10.4-29.6
			c2.2-3.9,4.3-7.7,5.6-11c1.2-3.3,2.3-6.6,3.3-9.8c4.7-15.1,8-23.6,21.5-23.6S718.6,823.9,723.2,839z"/>
		<g id="XMLID_33_">
			<path id="XMLID_97_" fill="#414042" d="M1243.1,836.4c-1,3.1-1.9,6.3-3.1,9.3c-1,2.7-2.9,6.1-5,9.8c-5.3,9.5-12,21.3-11.5,34.2
				c0.4,10.4,5,44.2,49.5,44.2c44.5,0,49.1-33.8,49.5-44.2c0.5-13-6.2-24.8-11.5-34.2c-2.1-3.6-4-7.1-5-9.8c-1.1-3-2.1-6.2-3.1-9.3
				c-4.1-13.2-8.7-28.1-26.7-29.7c-4.2-11.6-10.6-19.6-19.3-23.7c-13-6.2-25.9-1-26.5-0.8c-1.1,0.5-2,1.4-2.5,2.5
				c-0.4,1.2-0.3,2.4,0.2,3.5c0.5,0.9,9.3,17.5,27.1,24.2C1248.6,818.5,1245.7,827.8,1243.1,836.4z M1239,789.1
				c3.7-0.5,8.9-0.5,14.1,1.9c5.7,2.7,10.2,7.9,13.5,15.4C1252.6,804.7,1243.4,795.1,1239,789.1z M1271.6,815.4c0.4,0,0.9,0,1.3,0
				c13.5,0,16.8,8.5,21.5,23.6c1,3.2,2,6.5,3.3,9.8c1.2,3.3,3.3,7,5.6,11c4.8,8.5,10.8,19.1,10.4,29.6c-0.5,13.4-6.4,35.8-40.7,35.8
				c-34.3,0-40.3-22.4-40.7-35.8c-0.4-10.5,5.6-21.1,10.4-29.6c2.2-3.9,4.3-7.7,5.6-11c1.2-3.3,2.3-6.6,3.3-9.8
				C1255.9,824.5,1259.2,816,1271.6,815.4z"/>
			<path id="XMLID_18_" fill="#414042" d="M1303.1,890.3c0-16.6-13.5-30.1-30.1-30.1c-16.6,0-30.1,13.5-30.1,30.1
				c0,16.6,13.5,30.1,30.1,30.1C1289.6,920.4,1303.1,906.9,1303.1,890.3z M1251.6,890.3c0-11.8,9.6-21.4,21.4-21.4
				c11.8,0,21.4,9.6,21.4,21.4c0,11.8-9.6,21.4-21.4,21.4C1261.1,911.7,1251.6,902.1,1251.6,890.3z"/>
		</g>
		<path id="XMLID_47_" fill="#414042" d="M946.1,823.4c-8.1,6.6-12.8,16.8-13,27.9c-0.1,11.6,3.7,19.7,6.8,26.2
			c2.6,5.5,4,8.7,3,11.7c-3.5,10.6-2.7,20.4,2.1,26.8c2.6,3.5,7.5,7.5,16.3,7.5c0.4,0,0.8,0,1.2,0c10.9-0.4,23.2-6.1,32.9-15.1
			c7.9-7.3,17.8-20.2,20.1-39.7c3.5-29.5-12.2-44.9-30.2-50.3c0.5-2.6,1.4-6.4,3-10c0.1-0.1,0.1-0.3,0.2-0.4
			c2.3-4.9,5.9-9.5,11.6-10.6c2.4-0.5,3.9-2.7,3.5-5.1c-0.4-2.4-2.7-3.9-5.1-3.5c-5.7,1.1-9.9,4.1-13.1,7.8
			c-4.1-8.7-9.8-14.8-17-18.2c-13-6.2-25.9-1-26.5-0.8c-1.1,0.5-2,1.4-2.5,2.5c-0.4,1.2-0.3,2.4,0.2,3.5c0.6,1.1,13,24.5,38.5,26.9
			c-0.7,2.2-1.1,4.2-1.4,5.9C961.7,813.9,951.8,818.7,946.1,823.4z M950.6,784.3c3.7-0.5,8.9-0.5,14.1,1.9
			c5.7,2.7,10.2,7.9,13.5,15.4C964.2,799.9,955.1,790.3,950.6,784.3z M1006.9,867.5c-3.5,29.7-28.2,46.5-44.7,47.2
			c-4.6,0.2-8.1-1.1-10.2-4c-3-4-3.3-11-0.8-18.7c2.1-6.4-0.6-12.1-3.5-18.1c-2.8-6-6.1-12.8-6-22.4c0.1-8.4,3.7-16.4,9.7-21.3
			c4.7-3.8,10.5-5.7,17.3-5.7c2.5,0,5.1,0.3,7.8,0.8c0.1,0,0.1,0,0.2,0C985,826.5,1011,833.2,1006.9,867.5z"/>
	</g>
	<g id="XMLID_41_">
		<polygon id="XMLID_9_" fill="#414042" points="528,51.2 528,46.4 514.1,46.4 514.1,79.9 519.3,79.9 519.3,66.1 526.1,66.1 
			526.1,61.3 519.3,61.3 519.3,51.2 		"/>
		<path id="XMLID_38_" fill="#414042" d="M566.5,56.7v-2.6c0-5.2-2.3-7.7-7.8-7.7h-8v33.5h5.3V66.3h1.8c2.4,0,3.4,1.1,3.4,4.3v5.3
			c0,2.7,0.2,3.3,0.5,4.1h5.4c-0.5-1.2-0.6-2.4-0.6-4.1v-5.2c0-3.5-0.9-6-3.5-7.1C565.4,62.4,566.5,60.2,566.5,56.7z M561.2,57.9
			c0,2.7-1.2,3.5-3.2,3.5H556V51.2h2.5c1.9,0,2.7,1.1,2.7,3.5V57.9z"/>
		<path id="XMLID_8_" fill="#414042" d="M589.9,46.4v25.5c0,5.4,2.7,8.4,7.9,8.4s7.9-3.1,7.9-8.4V46.4h-5v25.9
			c0,2.4-1.1,3.3-2.7,3.3c-1.7,0-2.7-0.9-2.7-3.3V46.4H589.9z"/>
		<rect id="XMLID_10_" x="629.3" y="46.4" fill="#414042" width="5.3" height="33.5"/>
		<polygon id="XMLID_12_" fill="#414042" points="667.8,79.9 667.8,51.2 673.4,51.2 673.4,46.4 657.1,46.4 657.1,51.2 662.6,51.2 
			662.6,79.9 		"/>
		<rect id="XMLID_13_" x="723.4" y="46.4" fill="#414042" width="5.3" height="33.5"/>
		<path id="XMLID_14_" fill="#414042" d="M767.9,57.7v-3.3c0-5.4-2.7-8.4-7.9-8.4c-5.2,0-7.9,3.1-7.9,8.4v17.4
			c0,5.4,2.7,8.4,7.9,8.4c5.2,0,7.9-3.1,7.9-8.4v-4.5h-5v4.8c0,2.4-1.1,3.3-2.7,3.3c-1.7,0-2.7-0.9-2.7-3.3V54.1
			c0-2.4,1.1-3.3,2.7-3.3c1.7,0,2.7,0.9,2.7,3.3v3.6H767.9z"/>
		<path id="XMLID_42_" fill="#414042" d="M806.9,71.9V54.4c0-5.4-2.8-8.4-8-8.4c-5.2,0-8,3.1-8,8.4v17.4c0,5.4,2.8,8.4,8,8.4
			C804,80.3,806.9,77.2,806.9,71.9z M796.1,72.2V54.1c0-2.4,1.1-3.3,2.7-3.3c1.7,0,2.7,0.9,2.7,3.3v18.1c0,2.4-1.1,3.3-2.7,3.3
			C797.2,75.5,796.1,74.6,796.1,72.2z"/>
		<polygon id="XMLID_15_" fill="#414042" points="841.7,79.9 847.1,79.9 847.1,46.4 842.4,46.4 842.4,66.5 837,46.4 830.4,46.4 
			830.4,79.9 835.1,79.9 835.1,55.6 		"/>
		<path id="XMLID_36_" fill="#414042" d="M870.2,69.8v2.1c0,5.4,2.7,8.4,7.9,8.4c5.2,0,7.9-3.1,7.9-8.4c0-9.6-10.3-10.9-10.3-17.8
			c0-2.4,1-3.3,2.6-3.3s2.6,0.9,2.6,3.3v1.4h5v-1.1c0-5.4-2.6-8.4-7.8-8.4s-7.8,3.1-7.8,8.4c0,9.6,10.3,10.9,10.3,17.8
			c0,2.4-1.1,3.3-2.7,3.3s-2.7-0.9-2.7-3.3v-2.4H870.2z"/>
	</g>
</g>
</svg>
